# Blender v2.79 (sub 0) OBJ File: ''
# www.blender.org
mtllib sphere.mtl
o Sphere_Sphere.001
v -2.070696 1.718951 1.758063
v -2.070696 1.011844 1.465170
v -2.070696 0.304737 1.758063
v -1.570696 1.718951 1.965170
v -1.363589 1.011844 1.758063
v -1.570696 0.304737 1.965170
v -1.363589 1.718951 2.465170
v -1.070696 1.011844 2.465170
v -1.363589 0.304737 2.465170
v -1.570696 1.718951 2.965170
v -1.363589 1.011844 3.172277
v -1.570696 0.304737 2.965170
v -2.070696 0.011844 2.465170
v -2.070696 1.718951 3.172277
v -2.070696 1.011844 3.465170
v -2.070696 0.304737 3.172277
v -2.070696 2.011844 2.465170
v -2.570696 1.718951 2.965170
v -2.777803 1.011844 3.172277
v -2.570696 0.304737 2.965170
v -2.777803 1.718951 2.465170
v -3.070696 1.011844 2.465170
v -2.777803 0.304737 2.465170
v -2.570696 1.718951 1.965170
v -2.777803 1.011844 1.758063
v -2.570696 0.304737 1.965170
vn 0.1566 -0.9125 -0.3780
vn 0.3574 0.3574 -0.8629
vn 0.3574 -0.3574 -0.8629
vn 0.1566 0.9125 -0.3780
vn 0.3780 -0.9125 -0.1566
vn 0.8629 0.3574 -0.3574
vn 0.8629 -0.3574 -0.3574
vn 0.3780 0.9125 -0.1566
vn 0.3780 -0.9125 0.1566
vn 0.8629 0.3574 0.3574
vn 0.8629 -0.3574 0.3574
vn 0.3780 0.9125 0.1566
vn 0.1566 -0.9125 0.3780
vn 0.3574 0.3574 0.8629
vn 0.3574 -0.3574 0.8629
vn 0.1566 0.9125 0.3780
vn -0.1566 0.9125 0.3780
vn -0.1566 -0.9125 0.3780
vn -0.3574 0.3574 0.8629
vn -0.3574 -0.3574 0.8629
vn -0.8629 -0.3574 0.3574
vn -0.3780 0.9125 0.1566
vn -0.3780 -0.9125 0.1566
vn -0.8629 0.3574 0.3574
vn -0.8629 -0.3574 -0.3574
vn -0.3780 0.9125 -0.1566
vn -0.3780 -0.9125 -0.1566
vn -0.8629 0.3574 -0.3574
vn -0.3574 -0.3574 -0.8629
vn -0.1566 0.9125 -0.3780
vn -0.1566 -0.9125 -0.3780
vn -0.3574 0.3574 -0.8629
usemtl None
s off
f 13//1 3//1 6//1
f 1//2 5//2 2//2
f 2//3 6//3 3//3
f 1//4 17//4 4//4
f 13//5 6//5 9//5
f 4//6 8//6 5//6
f 5//7 9//7 6//7
f 4//8 17//8 7//8
f 13//9 9//9 12//9
f 7//10 11//10 8//10
f 9//11 11//11 12//11
f 7//12 17//12 10//12
f 13//13 12//13 16//13
f 10//14 15//14 11//14
f 11//15 16//15 12//15
f 10//16 17//16 14//16
f 14//17 17//17 18//17
f 13//18 16//18 20//18
f 14//19 19//19 15//19
f 15//20 20//20 16//20
f 19//21 23//21 20//21
f 18//22 17//22 21//22
f 13//23 20//23 23//23
f 18//24 22//24 19//24
f 22//25 26//25 23//25
f 21//26 17//26 24//26
f 13//27 23//27 26//27
f 21//28 25//28 22//28
f 25//29 3//29 26//29
f 24//30 17//30 1//30
f 13//31 26//31 3//31
f 25//32 1//32 2//32
f 1//2 4//2 5//2
f 2//3 5//3 6//3
f 4//6 7//6 8//6
f 5//7 8//7 9//7
f 7//10 10//10 11//10
f 9//11 8//11 11//11
f 10//14 14//14 15//14
f 11//15 15//15 16//15
f 14//19 18//19 19//19
f 15//20 19//20 20//20
f 19//21 22//21 23//21
f 18//24 21//24 22//24
f 22//25 25//25 26//25
f 21//28 24//28 25//28
f 25//29 2//29 3//29
f 25//32 24//32 1//32
