# Blender v2.78 (sub 0) OBJ File: ''
# www.blender.org
mtllib sphere.mtl
o Sphere_Sphere.001
v -0.000000 -1.000000 -0.000000
v -0.000000 -0.707107 -0.707107
v 0.500000 -0.707107 -0.500000
v -0.000000 0.707107 -0.707107
v 0.707107 0.000000 -0.707107
v -0.000000 0.000000 -1.000000
v -0.000000 1.000000 -0.000000
v 0.500000 0.707107 -0.500000
v 0.707107 -0.707107 -0.000000
v 1.000000 0.000000 -0.000000
v 0.707107 0.707107 -0.000000
v 0.500000 -0.707107 0.500000
v 0.707107 -0.000000 0.707107
v 0.500000 0.707107 0.500000
v -0.000000 -0.707107 0.707107
v -0.000000 -0.000000 1.000000
v -0.000000 0.707107 0.707107
v -0.500000 0.707107 0.500000
v -0.500000 -0.707107 0.500000
v -0.707107 -0.000000 0.707107
v -0.707107 -0.707107 -0.000000
v -0.707107 0.707107 -0.000000
v -1.000000 0.000000 -0.000000
v -0.500000 -0.707107 -0.500000
v -0.500000 0.707107 -0.500000
v -0.707107 0.000000 -0.707107
vn 0.1566 -0.9125 -0.3780
vn 0.3574 0.3574 -0.8629
vn 0.3574 -0.3574 -0.8629
vn 0.1566 0.9125 -0.3780
vn 0.3780 -0.9125 -0.1566
vn 0.8629 0.3574 -0.3574
vn 0.8629 -0.3574 -0.3574
vn 0.3780 0.9125 -0.1566
vn 0.3780 -0.9125 0.1566
vn 0.8629 0.3574 0.3574
vn 0.8629 -0.3574 0.3574
vn 0.3780 0.9125 0.1566
vn 0.1566 -0.9125 0.3780
vn 0.3574 0.3574 0.8629
vn 0.3574 -0.3574 0.8629
vn 0.1566 0.9125 0.3780
vn -0.1566 0.9125 0.3780
vn -0.1566 -0.9125 0.3780
vn -0.3574 0.3574 0.8629
vn -0.3574 -0.3574 0.8629
vn -0.8629 -0.3574 0.3574
vn -0.3780 0.9125 0.1566
vn -0.3780 -0.9125 0.1566
vn -0.8629 0.3574 0.3574
vn -0.8629 -0.3574 -0.3574
vn -0.3780 0.9125 -0.1566
vn -0.3780 -0.9125 -0.1566
vn -0.8629 0.3574 -0.3574
vn -0.3574 -0.3574 -0.8629
vn -0.1566 0.9125 -0.3780
vn -0.1566 -0.9125 -0.3780
vn -0.3574 0.3574 -0.8629
usemtl None
s 1
f 1//1 2//1 3//1
f 4//2 5//2 6//2
f 6//3 3//3 2//3
f 4//4 7//4 8//4
f 1//5 3//5 9//5
f 8//6 10//6 5//6
f 5//7 9//7 3//7
f 8//8 7//8 11//8
f 1//9 9//9 12//9
f 11//10 13//10 10//10
f 9//11 13//11 12//11
f 11//12 7//12 14//12
f 1//13 12//13 15//13
f 14//14 16//14 13//14
f 13//15 15//15 12//15
f 14//16 7//16 17//16
f 17//17 7//17 18//17
f 1//18 15//18 19//18
f 17//19 20//19 16//19
f 16//20 19//20 15//20
f 20//21 21//21 19//21
f 18//22 7//22 22//22
f 1//23 19//23 21//23
f 18//24 23//24 20//24
f 23//25 24//25 21//25
f 22//26 7//26 25//26
f 1//27 21//27 24//27
f 22//28 26//28 23//28
f 26//29 2//29 24//29
f 25//30 7//30 4//30
f 1//31 24//31 2//31
f 26//32 4//32 6//32
f 4//2 8//2 5//2
f 6//3 5//3 3//3
f 8//6 11//6 10//6
f 5//7 10//7 9//7
f 11//10 14//10 13//10
f 9//11 10//11 13//11
f 14//14 17//14 16//14
f 13//15 16//15 15//15
f 17//19 18//19 20//19
f 16//20 20//20 19//20
f 20//21 23//21 21//21
f 18//24 22//24 23//24
f 23//25 26//25 24//25
f 22//28 25//28 26//28
f 26//29 6//29 2//29
f 26//32 25//32 4//32
